<?xml version="1.0" encoding="utf-8"?>
<!-- Generator: Adobe Illustrator 18.1.1, SVG Export Plug-In . SVG Version: 6.00 Build 0)  -->
<svg version="1.1" id="marketsWordA" xmlns="http://www.w3.org/2000/svg" xmlns:xlink="http://www.w3.org/1999/xlink" x="0px"
	 y="0px" viewBox="0 0 1020 195.8" enable-background="new 0 0 1020 195.8" xml:space="preserve">
<path fill-rule="evenodd" clip-rule="evenodd" fill="#00C0E8" d="M175.8,97.9c0,43-34.9,77.9-77.9,77.9c-43,0-77.9-34.9-77.9-77.9
	C20,54.9,54.9,20,97.9,20C140.9,20,175.8,54.9,175.8,97.9"/>
<path fill="#FFFFFF" d="M119.9,132.5L79.4,77.2v55.3h-8.6V63.2h8.8l39.9,54.2V63.2h8.6v69.3H119.9z"/>
<path fill="#00C0E8" d="M185.7,97.9c0-20.5,13.8-35.9,34.4-35.9c20.5,0,34.4,15.4,34.4,35.9c0,20.5-13.9,35.9-34.4,35.9
	C199.6,133.8,185.7,118.4,185.7,97.9z M245.6,97.9c0-16.2-10-28.2-25.5-28.2c-15.6,0-25.5,12-25.5,28.2c0,16.1,9.9,28.2,25.5,28.2
	C235.6,126.1,245.6,114,245.6,97.9z"/>
<path fill="#00C0E8" d="M268.9,97.9c0-20.5,13.8-35.9,34.4-35.9c20.5,0,34.4,15.4,34.4,35.9c0,20.5-13.9,35.9-34.4,35.9
	C282.8,133.8,268.9,118.4,268.9,97.9z M328.8,97.9c0-16.2-10-28.2-25.5-28.2c-15.6,0-25.5,12-25.5,28.2c0,16.1,9.9,28.2,25.5,28.2
	C318.8,126.1,328.8,114,328.8,97.9z"/>
<path fill="#00C0E8" d="M354.8,132.5V63.2h23.7c21.5,0,35.6,15.1,35.6,34.7c0,19.8-14,34.6-35.6,34.6H354.8z M405.2,97.9
	c0-15-9.5-27-26.6-27h-15.1v54h15.1C395.4,124.8,405.2,112.8,405.2,97.9z"/>
<path fill="#00C0E8" d="M431.3,132.5V63.2h8.6v61.6h32.2v7.7H431.3z"/>
<path fill="#00C0E8" d="M486.9,132.5V63.2h45.4v7.7h-36.8v22.4h36.1v7.7h-36.1v23.9h36.8v7.7H486.9z"/>
<path fill="#00C0E8" d="M620.3,132.6V69.3l-26.1,63.3h-1L567,69.3v63.3h-3.2V65.5h5.1l24.7,60l24.7-60h5.1v67.1H620.3z"/>
<path fill="#00C0E8" d="M694.7,132.6l-7.4-18h-37.4l-7.4,18h-3.7l28-67.1h3.8l28,67.1H694.7z M668.5,69.2L651,111.6h35L668.5,69.2z"
	/>
<path fill="#00C0E8" d="M753.3,132.6l-20.4-29h-16.1v29h-3.2V65.5h23.1c10.9,0,19.8,6.7,19.8,19c0,12.3-9,19.1-19.8,19.1l20.7,29
	H753.3z M753,84.5c0-9.3-6.4-16-16.3-16h-19.9v32.1h19.9C746.5,100.6,753,93.8,753,84.5z"/>
<path fill="#00C0E8" d="M819,132.6l-29.9-33l-8,8.8v24.2h-3.2V65.5h3.2v38.7L816,65.5h4.3l-29.2,32.1l32.2,35H819z"/>
<path fill="#00C0E8" d="M838.5,132.6V65.5h41v3h-37.8v28.1h37.1v3h-37.1v30h37.8v3H838.5z"/>
<path fill="#00C0E8" d="M918.4,132.6V68.5h-22.6v-3h48.6v3h-22.7v64.1H918.4z"/>
<path fill="#00C0E8" d="M953.6,123.1l2.6-2.3c4.1,5,11.2,10,20.8,10c15.5,0,19.4-8.8,19.4-15.2c0-22.1-40.7-11.2-40.7-34.1
	c0-10.9,10-17.1,21-17.1c9.9,0,17,3.6,21.7,9.5l-2.5,2.3c-4.7-6.1-11.5-8.8-19.2-8.8c-9.8,0-17.5,5.8-17.5,14.1
	c0,19.1,40.7,9.1,40.7,34.1c0,7.5-4.8,18.2-22.9,18.2C966.6,133.8,958.4,129.3,953.6,123.1z"/>
</svg>
